<mxfile host="app.diagrams.net" modified="2022-09-23T08:53:19.143Z" agent="5.0 (Windows NT 10.0; Win64; x64) AppleWebKit/537.36 (KHTML, like Gecko) Chrome/104.0.5112.102 Safari/537.36 Edg/104.0.1293.70" etag="wHTUWb67f-us_0-7P7Z2" version="20.3.6" type="github">
  <diagram id="lJl_fFKmeBX8TUFr7rBq" name="第 1 页">
    <mxGraphModel dx="1301" dy="661" grid="1" gridSize="10" guides="1" tooltips="1" connect="1" arrows="1" fold="1" page="0" pageScale="1" pageWidth="1200" pageHeight="1600" background="none" math="0" shadow="1">
      <root>
        <mxCell id="0" />
        <mxCell id="1" parent="0" />
        <mxCell id="76d5M4QL7nUwdy1U-5-b-5" value="" style="edgeStyle=orthogonalEdgeStyle;rounded=0;orthogonalLoop=1;jettySize=auto;html=1;" parent="1" source="76d5M4QL7nUwdy1U-5-b-1" target="76d5M4QL7nUwdy1U-5-b-4" edge="1">
          <mxGeometry relative="1" as="geometry" />
        </mxCell>
        <mxCell id="76d5M4QL7nUwdy1U-5-b-1" value="用户提交工单" style="rounded=1;whiteSpace=wrap;html=1;" parent="1" vertex="1">
          <mxGeometry x="110" y="80" width="80" height="60" as="geometry" />
        </mxCell>
        <mxCell id="76d5M4QL7nUwdy1U-5-b-9" value="" style="edgeStyle=orthogonalEdgeStyle;rounded=0;orthogonalLoop=1;jettySize=auto;html=1;" parent="1" source="76d5M4QL7nUwdy1U-5-b-4" target="76d5M4QL7nUwdy1U-5-b-8" edge="1">
          <mxGeometry relative="1" as="geometry" />
        </mxCell>
        <mxCell id="76d5M4QL7nUwdy1U-5-b-4" value="工单状态未分配" style="rounded=0;whiteSpace=wrap;html=1;" parent="1" vertex="1">
          <mxGeometry x="90" y="190" width="120" height="60" as="geometry" />
        </mxCell>
        <mxCell id="76d5M4QL7nUwdy1U-5-b-11" value="" style="edgeStyle=orthogonalEdgeStyle;rounded=0;orthogonalLoop=1;jettySize=auto;html=1;" parent="1" source="76d5M4QL7nUwdy1U-5-b-8" target="76d5M4QL7nUwdy1U-5-b-10" edge="1">
          <mxGeometry relative="1" as="geometry" />
        </mxCell>
        <mxCell id="76d5M4QL7nUwdy1U-5-b-8" value="客服拉取工单" style="whiteSpace=wrap;html=1;rounded=0;" parent="1" vertex="1">
          <mxGeometry x="90" y="330" width="120" height="60" as="geometry" />
        </mxCell>
        <mxCell id="76d5M4QL7nUwdy1U-5-b-13" value="" style="edgeStyle=orthogonalEdgeStyle;rounded=0;orthogonalLoop=1;jettySize=auto;html=1;" parent="1" source="76d5M4QL7nUwdy1U-5-b-10" target="76d5M4QL7nUwdy1U-5-b-12" edge="1">
          <mxGeometry relative="1" as="geometry" />
        </mxCell>
        <mxCell id="76d5M4QL7nUwdy1U-5-b-10" value="状态变为待回复（待处理））" style="whiteSpace=wrap;html=1;rounded=0;" parent="1" vertex="1">
          <mxGeometry x="290" y="330" width="120" height="60" as="geometry" />
        </mxCell>
        <mxCell id="76d5M4QL7nUwdy1U-5-b-15" value="是" style="edgeStyle=orthogonalEdgeStyle;rounded=0;orthogonalLoop=1;jettySize=auto;html=1;" parent="1" source="76d5M4QL7nUwdy1U-5-b-12" target="76d5M4QL7nUwdy1U-5-b-14" edge="1">
          <mxGeometry relative="1" as="geometry" />
        </mxCell>
        <mxCell id="76d5M4QL7nUwdy1U-5-b-21" value="否" style="edgeStyle=orthogonalEdgeStyle;rounded=0;orthogonalLoop=1;jettySize=auto;html=1;" parent="1" source="76d5M4QL7nUwdy1U-5-b-12" target="76d5M4QL7nUwdy1U-5-b-20" edge="1">
          <mxGeometry relative="1" as="geometry" />
        </mxCell>
        <mxCell id="76d5M4QL7nUwdy1U-5-b-12" value="客服回复，是否需要补充资料" style="rhombus;whiteSpace=wrap;html=1;rounded=0;" parent="1" vertex="1">
          <mxGeometry x="265" y="460" width="170" height="80" as="geometry" />
        </mxCell>
        <mxCell id="76d5M4QL7nUwdy1U-5-b-17" value="" style="edgeStyle=orthogonalEdgeStyle;rounded=0;orthogonalLoop=1;jettySize=auto;html=1;" parent="1" source="76d5M4QL7nUwdy1U-5-b-14" target="76d5M4QL7nUwdy1U-5-b-16" edge="1">
          <mxGeometry relative="1" as="geometry" />
        </mxCell>
        <mxCell id="ybvYLl5oQiib6wpnIJ9y-2" value="超时未回复" style="edgeStyle=orthogonalEdgeStyle;rounded=0;orthogonalLoop=1;jettySize=auto;html=1;" edge="1" parent="1" source="76d5M4QL7nUwdy1U-5-b-14" target="ybvYLl5oQiib6wpnIJ9y-1">
          <mxGeometry relative="1" as="geometry" />
        </mxCell>
        <mxCell id="76d5M4QL7nUwdy1U-5-b-14" value="状态变为需要补充资料" style="whiteSpace=wrap;html=1;rounded=0;" parent="1" vertex="1">
          <mxGeometry x="585" y="470" width="120" height="60" as="geometry" />
        </mxCell>
        <mxCell id="76d5M4QL7nUwdy1U-5-b-22" style="edgeStyle=orthogonalEdgeStyle;rounded=0;orthogonalLoop=1;jettySize=auto;html=1;" parent="1" source="76d5M4QL7nUwdy1U-5-b-16" target="76d5M4QL7nUwdy1U-5-b-8" edge="1">
          <mxGeometry relative="1" as="geometry">
            <mxPoint x="140" y="400" as="targetPoint" />
            <Array as="points">
              <mxPoint x="800" y="640" />
              <mxPoint x="800" y="290" />
              <mxPoint x="180" y="290" />
            </Array>
          </mxGeometry>
        </mxCell>
        <mxCell id="76d5M4QL7nUwdy1U-5-b-16" value="玩家回复，状态变为未分配，需要客服重新拉取" style="whiteSpace=wrap;html=1;rounded=0;" parent="1" vertex="1">
          <mxGeometry x="585" y="610" width="120" height="60" as="geometry" />
        </mxCell>
        <mxCell id="76d5M4QL7nUwdy1U-5-b-24" value="" style="edgeStyle=orthogonalEdgeStyle;rounded=0;orthogonalLoop=1;jettySize=auto;html=1;" parent="1" source="76d5M4QL7nUwdy1U-5-b-20" target="76d5M4QL7nUwdy1U-5-b-23" edge="1">
          <mxGeometry relative="1" as="geometry" />
        </mxCell>
        <mxCell id="76d5M4QL7nUwdy1U-5-b-20" value="工单状态变为工单完成未评价" style="whiteSpace=wrap;html=1;rounded=0;" parent="1" vertex="1">
          <mxGeometry x="290" y="630" width="120" height="60" as="geometry" />
        </mxCell>
        <mxCell id="76d5M4QL7nUwdy1U-5-b-23" value="用户评价，状态变为工单完成已评价" style="whiteSpace=wrap;html=1;rounded=0;" parent="1" vertex="1">
          <mxGeometry x="290" y="730" width="120" height="60" as="geometry" />
        </mxCell>
        <mxCell id="ybvYLl5oQiib6wpnIJ9y-1" value="超过时间不能回复，自动结单" style="whiteSpace=wrap;html=1;rounded=0;" vertex="1" parent="1">
          <mxGeometry x="585" y="330" width="120" height="60" as="geometry" />
        </mxCell>
      </root>
    </mxGraphModel>
  </diagram>
</mxfile>
